<svg width="38" height="37" viewBox="0 0 38 37" fill="none" xmlns="http://www.w3.org/2000/svg">
<path d="M5.59968 11.8936C3.87358 13.0133 2.14306 14.1286 0.558594 15.1554C1.28886 6.8215 9.60953 -0.419256 18.24 0.0189072C19.9838 6.02041 16.359 15.2351 10.8001 18.5368C7.65329 20.409 4.356 22.0288 0.912665 23.8789C-0.463786 18.7227 2.58122 15.5361 6.02456 12.5088C5.88293 12.3052 5.74131 12.0972 5.59968 11.8936Z" fill="#00973F"/>
<path d="M3.70169 28.4952C8.49935 23.8613 18.0062 21.0465 24.4945 25.8397C26.8269 27.5614 29.5267 28.7873 32.169 30.3054C29.0576 34.2046 25.061 33.4965 20.9582 32.2926C20.8963 32.4874 20.8343 32.6865 20.7723 32.8813C22.2196 33.6204 23.6624 34.3595 25.0389 35.0632C18.7807 38.4933 8.18069 36.6079 3.69727 28.4996H3.70169V28.4952Z" fill="#00973F"/>
<path d="M23.1754 0.749023C27.4508 2.57249 29.6637 5.99812 30.664 10.4107C30.8587 10.3488 31.049 10.2912 31.2437 10.2293C31.0003 8.42351 30.7569 6.61775 30.5312 4.92263C36.5061 8.6448 39.1174 19.9264 35.1562 25.773C34.8553 26.2156 33.7665 26.5254 33.2354 26.3439C27.5216 24.37 23.2329 18.3375 23.1798 12.3227C23.1488 8.52973 23.1798 4.73675 23.1798 0.749023H23.1754Z" fill="#00973F"/>
</svg>
